<?xml version="1.0" encoding="UTF-8" standalone="no"?>
<!DOCTYPE svg PUBLIC "-//W3C//DTD SVG 1.1//EN" "http://www.w3.org/Graphics/SVG/1.1/DTD/svg11.dtd">
<svg width="100%" height="100%" viewBox="0 0 128 128" version="1.1" xmlns="http://www.w3.org/2000/svg" xmlns:xlink="http://www.w3.org/1999/xlink" xml:space="preserve" xmlns:serif="http://www.serif.com/" style="fill-rule:evenodd;clip-rule:evenodd;stroke-linejoin:round;stroke-miterlimit:2;">
    <g>
        <g>
            <path d="M91.406,84.578L90.936,91.313C90.88,92.125 90.234,92.771 89.422,92.83L73.256,93.983C73.216,93.986 73.177,93.987 73.138,93.987C72.335,93.987 71.641,93.398 71.523,92.591L70.596,86.304L57.405,86.304L56.478,92.591C56.353,93.437 55.597,94.046 54.745,93.983L38.578,92.83C37.767,92.771 37.121,92.125 37.064,91.313L36.594,84.578L22.947,83.262C22.954,84.729 22.972,86.336 22.972,86.656C22.972,101.069 41.256,107.997 63.972,108.076L64.028,108.076C86.744,107.997 105.022,101.069 105.022,86.656C105.022,86.33 105.041,84.73 105.048,83.262L91.406,84.578Z" style="fill:white;fill-rule:nonzero;"/>
        </g>
        <g>
            <path d="M22.972,55.231C21.122,52.939 19.124,50 17.261,47.076C19.631,43.043 22.533,39.438 25.636,36.098C28.515,37.547 31.31,39.188 33.95,40.934C35.272,39.621 36.762,38.547 38.222,37.424C39.658,36.271 41.275,35.425 42.813,34.439C42.355,31.036 42.129,27.685 42.038,24.188C45.998,22.195 50.222,20.873 54.493,19.924C56.201,22.791 57.76,25.895 59.118,28.93C60.729,28.661 62.346,28.561 63.97,28.542L63.97,28.539C63.98,28.539 63.99,28.542 64,28.542C64.01,28.542 64.02,28.539 64.032,28.539L64.032,28.542C65.652,28.561 67.271,28.661 68.882,28.93C70.24,25.895 71.8,22.791 73.506,19.924C77.778,20.873 82.002,22.195 85.963,24.188C85.872,27.685 85.646,31.036 85.189,34.439C86.724,35.425 88.342,36.271 89.778,37.424C91.24,38.547 92.728,39.621 94.049,40.934C96.69,39.188 99.485,37.547 102.363,36.098C105.466,39.438 108.37,43.043 110.739,47.076C109.189,49.573 107.165,52.541 105.028,55.231L105.028,78.01L105.022,78.012L105.022,79.987C104.976,79.988 104.931,79.99 104.887,79.994L89.715,81.457C88.92,81.534 88.298,82.174 88.242,82.97L87.774,89.67L74.535,90.615L73.623,84.431C73.505,83.63 72.817,83.035 72.006,83.035L55.994,83.035C55.183,83.035 54.496,83.63 54.377,84.431L53.465,90.615L40.226,89.67L39.758,82.97C39.703,82.174 39.08,81.534 38.285,81.457L23.108,79.994C23.063,79.99 23.018,79.988 22.972,79.987L22.972,55.231ZM51.632,65.281C51.632,60.231 47.537,56.139 42.486,56.139C37.436,56.139 33.341,60.231 33.341,65.281C33.341,70.334 37.436,74.428 42.486,74.428C47.537,74.428 51.632,70.334 51.632,65.281ZM76.369,65.281C76.369,70.334 80.463,74.428 85.516,74.428C90.564,74.428 94.66,70.334 94.66,65.281C94.66,60.231 90.564,56.139 85.516,56.139C80.463,56.139 76.369,60.231 76.369,65.281ZM63.999,75.26C65.625,75.26 66.946,74.062 66.946,72.584L66.946,64.164C66.946,62.688 65.625,61.489 63.999,61.489C62.373,61.489 61.055,62.688 61.055,64.164L61.055,72.584C61.055,74.062 62.373,75.26 63.999,75.26Z" style="fill:white;fill-rule:nonzero;"/>
        </g>
    </g>
</svg>
