<?xml version="1.0" encoding="UTF-8" standalone="no"?>
<!DOCTYPE svg PUBLIC "-//W3C//DTD SVG 1.1//EN" "http://www.w3.org/Graphics/SVG/1.1/DTD/svg11.dtd">
<svg width="100%" height="100%" viewBox="0 0 128 128" version="1.1" xmlns="http://www.w3.org/2000/svg" xmlns:xlink="http://www.w3.org/1999/xlink" xml:space="preserve" xmlns:serif="http://www.serif.com/" style="fill-rule:evenodd;clip-rule:evenodd;stroke-linejoin:round;stroke-miterlimit:2;">
    <g>
        <path d="M123,0C125.762,0 128,2.239 128,5L128,123C128,125.762 125.762,128 123,128L5,128C2.239,128 0,125.762 0,123L0,5C0,2.239 2.239,0 5,0L123,0Z" style="fill:#151617;"/>
        <path d="M121,94.5C122.657,94.5 124,95.843 124,97.5L124,121C124,122.657 122.657,124 121,124L7,124C5.343,124 4,122.657 4,121L4,97.5C4,95.843 5.343,94.5 7,94.5L121,94.5Z" style="fill:#2f3031;"/>
        <path d="M121,94.5C122.657,94.5 124,95.843 124,97.5L124,121C124,122.657 122.657,124 121,124L7,124C5.343,124 4,122.657 4,121L4,97.5C4,95.843 5.343,94.5 7,94.5L121,94.5ZM121,96.5L7,96.5C6.448,96.5 6,96.948 6,97.5L6,121C6,121.552 6.448,122 7,122L121,122C121.552,122 122,121.552 122,121L122,97.5C122,96.948 121.552,96.5 121,96.5Z" style="fill:#f0aa1e;"/>
        <path d="M42.946,104.741L45.576,104.741C46.139,104.741 46.633,104.785 47.059,104.873C47.49,104.957 47.848,105.095 48.134,105.289C48.423,105.478 48.641,105.728 48.786,106.04C48.931,106.348 49.004,106.728 49.004,107.18C49.004,107.453 48.96,107.708 48.872,107.945C48.789,108.182 48.666,108.391 48.503,108.571C48.34,108.751 48.138,108.903 47.896,109.026C47.659,109.144 47.389,109.224 47.086,109.263L47.086,109.329C47.389,109.382 47.672,109.459 47.936,109.56C48.204,109.656 48.437,109.793 48.635,109.969C48.833,110.14 48.989,110.358 49.103,110.621C49.217,110.885 49.274,111.206 49.274,111.584C49.274,112.023 49.202,112.417 49.057,112.763C48.916,113.106 48.709,113.399 48.437,113.64C48.169,113.878 47.842,114.06 47.455,114.188C47.068,114.315 46.631,114.379 46.143,114.379L42.946,114.379L42.946,104.741ZM44.172,108.828L45.781,108.828C46.15,108.828 46.459,108.795 46.71,108.729C46.96,108.664 47.163,108.567 47.316,108.439C47.47,108.308 47.58,108.145 47.646,107.952C47.716,107.754 47.751,107.525 47.751,107.266C47.751,106.739 47.582,106.361 47.244,106.132C46.906,105.903 46.372,105.79 45.642,105.79L44.172,105.79L44.172,108.828ZM44.172,109.857L44.172,113.337L45.926,113.337C46.312,113.337 46.635,113.293 46.895,113.205C47.158,113.117 47.369,112.994 47.527,112.836C47.69,112.677 47.806,112.489 47.877,112.269C47.947,112.045 47.982,111.799 47.982,111.531C47.982,111.284 47.945,111.059 47.87,110.852C47.8,110.646 47.681,110.47 47.514,110.325C47.352,110.175 47.134,110.061 46.862,109.982C46.589,109.898 46.251,109.857 45.846,109.857L44.172,109.857ZM56.528,114.379L56.35,113.409L56.283,113.409C56.174,113.599 56.042,113.763 55.888,113.904C55.739,114.04 55.574,114.155 55.394,114.247C55.214,114.335 55.023,114.4 54.821,114.445C54.618,114.489 54.411,114.51 54.201,114.51C53.801,114.51 53.449,114.46 53.146,114.359C52.843,114.257 52.59,114.1 52.388,113.884C52.186,113.668 52.032,113.394 51.926,113.06C51.826,112.726 51.775,112.329 51.775,111.867L51.775,107.141L52.975,107.141L52.975,111.801C52.975,112.373 53.091,112.801 53.324,113.087C53.557,113.372 53.917,113.515 54.405,113.515C54.761,113.515 55.06,113.458 55.301,113.344C55.543,113.229 55.737,113.063 55.882,112.843C56.031,112.619 56.137,112.344 56.198,112.019C56.264,111.694 56.297,111.32 56.297,110.898L56.297,107.141L57.496,107.141L57.496,114.379L56.528,114.379ZM62.654,113.528C62.733,113.528 62.821,113.524 62.917,113.515C63.019,113.506 63.115,113.495 63.208,113.482C63.3,113.469 63.384,113.454 63.458,113.436C63.538,113.418 63.597,113.403 63.636,113.39L63.636,114.299C63.579,114.326 63.507,114.352 63.419,114.379C63.331,114.405 63.234,114.427 63.129,114.445C63.023,114.467 62.913,114.482 62.799,114.491C62.685,114.504 62.573,114.51 62.463,114.51C62.191,114.51 61.938,114.475 61.705,114.405C61.472,114.335 61.27,114.214 61.099,114.042C60.932,113.871 60.8,113.64 60.703,113.35C60.606,113.055 60.558,112.687 60.558,112.243L60.558,108.043L59.536,108.043L59.536,107.51L60.558,106.996L61.072,105.48L61.764,105.48L61.764,107.141L63.584,107.141L63.584,108.043L61.764,108.043L61.764,112.243C61.764,112.669 61.832,112.99 61.969,113.205C62.109,113.421 62.338,113.528 62.654,113.528ZM68.036,113.528C68.115,113.528 68.203,113.524 68.299,113.515C68.4,113.506 68.497,113.495 68.589,113.482C68.682,113.469 68.765,113.454 68.84,113.436C68.919,113.418 68.978,113.403 69.018,113.39L69.018,114.299C68.961,114.326 68.888,114.352 68.8,114.379C68.713,114.405 68.616,114.427 68.51,114.445C68.405,114.467 68.295,114.482 68.181,114.491C68.067,114.504 67.954,114.51 67.845,114.51C67.572,114.51 67.319,114.475 67.087,114.405C66.854,114.335 66.651,114.214 66.48,114.042C66.313,113.871 66.181,113.64 66.085,113.35C65.988,113.055 65.94,112.687 65.94,112.243L65.94,108.043L64.918,108.043L64.918,107.51L65.94,106.996L66.454,105.48L67.146,105.48L67.146,107.141L68.965,107.141L68.965,108.043L67.146,108.043L67.146,112.243C67.146,112.669 67.214,112.99 67.35,113.205C67.491,113.421 67.719,113.528 68.036,113.528ZM76.997,110.747C76.997,111.349 76.922,111.885 76.772,112.355C76.627,112.821 76.417,113.214 76.14,113.534C75.867,113.851 75.535,114.093 75.144,114.26C74.753,114.427 74.314,114.51 73.826,114.51C73.373,114.51 72.956,114.427 72.574,114.26C72.191,114.093 71.859,113.851 71.578,113.534C71.301,113.214 71.084,112.821 70.926,112.355C70.772,111.885 70.695,111.349 70.695,110.747C70.695,110.149 70.767,109.619 70.912,109.158C71.062,108.692 71.272,108.301 71.545,107.985C71.818,107.664 72.149,107.422 72.541,107.26C72.936,107.093 73.378,107.009 73.866,107.009C74.318,107.009 74.736,107.093 75.118,107.26C75.5,107.422 75.83,107.664 76.107,107.985C76.388,108.301 76.606,108.692 76.759,109.158C76.918,109.619 76.997,110.149 76.997,110.747ZM71.934,110.747C71.934,111.665 72.084,112.357 72.382,112.823C72.686,113.284 73.176,113.515 73.852,113.515C74.529,113.515 75.015,113.284 75.309,112.823C75.608,112.357 75.757,111.665 75.757,110.747C75.757,109.828 75.606,109.143 75.303,108.69C75.004,108.233 74.516,108.004 73.839,108.004C73.162,108.004 72.675,108.233 72.376,108.69C72.081,109.143 71.934,109.828 71.934,110.747ZM84.085,114.379L84.085,109.718C84.085,109.147 83.969,108.719 83.736,108.433C83.507,108.147 83.147,108.004 82.655,108.004C82.299,108.004 82,108.062 81.759,108.176C81.516,108.29 81.321,108.459 81.172,108.683C81.027,108.907 80.921,109.182 80.855,109.507C80.794,109.833 80.763,110.206 80.763,110.628L80.763,114.379L79.563,114.379L79.563,107.141L80.539,107.141L80.71,108.116L80.776,108.116C80.886,107.927 81.016,107.765 81.165,107.629C81.319,107.488 81.486,107.372 81.666,107.279C81.846,107.187 82.037,107.119 82.24,107.075C82.442,107.031 82.648,107.009 82.859,107.009C83.664,107.009 84.268,107.22 84.672,107.641C85.081,108.059 85.285,108.729 85.285,109.652L85.285,114.379L84.085,114.379Z" style="fill:#e3e4e4;"/>
        <path d="M121.5,63C122.163,63 122.799,63.264 123.268,63.732C123.737,64.201 124,64.837 124,65.5L124,88C124,88.663 123.737,89.299 123.268,89.768C122.799,90.237 122.163,90.5 121.5,90.5L64,90.5C63.337,90.5 62.701,90.237 62.232,89.768C61.764,89.299 61.5,88.663 61.5,88L61.5,65.5C61.5,64.837 61.764,64.201 62.232,63.732C62.701,63.264 63.337,63 64,63L121.5,63Z" style="fill:#121314;"/>
        <path d="M121.5,31.5C122.163,31.5 122.799,31.764 123.268,32.232C123.737,32.701 124,33.337 124,34L124,56.5C124,57.163 123.737,57.799 123.268,58.268C122.799,58.737 122.163,59 121.5,59L64,59C63.337,59 62.701,58.737 62.232,58.268C61.764,57.799 61.5,57.163 61.5,56.5L61.5,34C61.5,33.337 61.764,32.701 62.232,32.232C62.701,31.764 63.337,31.5 64,31.5L121.5,31.5Z" style="fill:#121314;"/>
        <path d="M82,69.5C82.663,69.5 83.299,69.763 83.768,70.232C84.237,70.701 84.5,71.337 84.5,72L84.5,81C84.5,81.663 84.237,82.299 83.768,82.768C83.299,83.237 82.663,83.5 82,83.5L73,83.5C72.337,83.5 71.701,83.237 71.232,82.768C70.763,82.299 70.5,81.663 70.5,81L70.5,72C70.5,71.337 70.763,70.701 71.232,70.232C71.701,69.763 72.337,69.5 73,69.5L82,69.5Z" style="fill:#3c3d3e;"/>
        <rect x="67.5" y="54" width="51" height="2" style="fill:#373739;"/>
        <rect x="67.5" y="54" width="21" height="2" style="fill:#787879;"/>
        <rect x="86.5" y="53" width="4" height="4" style="fill:#b9b9ba;"/>
        <path d="M11.12,80.879L9.887,80.879L9.887,72.323L7.132,72.323L7.132,71.241L13.868,71.241L13.868,72.323L11.12,72.323L11.12,80.879ZM20.918,77.247C20.918,77.849 20.843,78.385 20.694,78.855C20.549,79.321 20.338,79.714 20.061,80.034C19.789,80.351 19.456,80.593 19.066,80.76C18.674,80.927 18.235,81.01 17.748,81.01C17.295,81.01 16.877,80.927 16.495,80.76C16.113,80.593 15.781,80.351 15.499,80.034C15.223,79.714 15.005,79.321 14.847,78.855C14.693,78.385 14.616,77.849 14.616,77.247C14.616,76.649 14.689,76.119 14.834,75.658C14.983,75.192 15.194,74.801 15.467,74.485C15.739,74.164 16.071,73.922 16.462,73.76C16.858,73.593 17.299,73.509 17.787,73.509C18.24,73.509 18.657,73.593 19.04,73.76C19.422,73.922 19.751,74.164 20.028,74.485C20.31,74.801 20.527,75.192 20.68,75.658C20.839,76.119 20.918,76.649 20.918,77.247ZM15.855,77.247C15.855,78.165 16.005,78.857 16.304,79.323C16.607,79.784 17.097,80.015 17.773,80.015C18.451,80.015 18.936,79.784 19.231,79.323C19.529,78.857 19.679,78.165 19.679,77.247C19.679,76.328 19.527,75.643 19.224,75.19C18.925,74.733 18.437,74.504 17.761,74.504C17.084,74.504 16.596,74.733 16.297,75.19C16.003,75.643 15.855,76.328 15.855,77.247ZM29.385,77.247C29.385,77.849 29.31,78.385 29.161,78.855C29.016,79.321 28.805,79.714 28.528,80.034C28.255,80.351 27.923,80.593 27.532,80.76C27.141,80.927 26.702,81.01 26.214,81.01C25.761,81.01 25.344,80.927 24.962,80.76C24.579,80.593 24.247,80.351 23.966,80.034C23.689,79.714 23.472,79.321 23.314,78.855C23.16,78.385 23.083,77.849 23.083,77.247C23.083,76.649 23.155,76.119 23.3,75.658C23.45,75.192 23.661,74.801 23.933,74.485C24.206,74.164 24.538,73.922 24.929,73.76C25.324,73.593 25.766,73.509 26.254,73.509C26.706,73.509 27.124,73.593 27.506,73.76C27.888,73.922 28.218,74.164 28.494,74.485C28.776,74.801 28.994,75.192 29.147,75.658C29.305,76.119 29.385,76.649 29.385,77.247ZM24.322,77.247C24.322,78.165 24.472,78.857 24.77,79.323C25.074,79.784 25.564,80.015 26.24,80.015C26.917,80.015 27.403,79.784 27.697,79.323C27.996,78.857 28.145,78.165 28.145,77.247C28.145,76.328 27.994,75.643 27.691,75.19C27.392,74.733 26.904,74.504 26.227,74.504C25.55,74.504 25.063,74.733 24.764,75.19C24.469,75.643 24.322,76.328 24.322,77.247ZM33.151,80.879L31.952,80.879L31.952,70.622L33.151,70.622L33.151,80.879Z" style="fill:#a3a4a4;"/>
        <path d="M13.387,46.801C13.387,47.228 13.31,47.609 13.157,47.948C13.008,48.282 12.792,48.566 12.511,48.798C12.23,49.032 11.887,49.209 11.483,49.333C11.078,49.451 10.624,49.511 10.118,49.511C9.63,49.511 9.173,49.471 8.747,49.392C8.325,49.317 7.971,49.205 7.686,49.056L7.686,47.882C7.835,47.953 8.004,48.023 8.193,48.093C8.387,48.159 8.589,48.219 8.8,48.271C9.011,48.324 9.228,48.368 9.452,48.403C9.677,48.434 9.898,48.449 10.118,48.449C10.821,48.449 11.339,48.317 11.674,48.054C12.012,47.79 12.181,47.412 12.181,46.92C12.181,46.683 12.148,46.476 12.083,46.3C12.021,46.125 11.909,45.964 11.746,45.819C11.588,45.67 11.375,45.527 11.107,45.391C10.839,45.25 10.5,45.098 10.092,44.936C9.701,44.782 9.36,44.615 9.07,44.435C8.784,44.25 8.547,44.044 8.358,43.815C8.174,43.587 8.035,43.327 7.943,43.037C7.855,42.747 7.811,42.417 7.811,42.048C7.811,41.661 7.881,41.317 8.021,41.014C8.162,40.71 8.36,40.456 8.615,40.249C8.87,40.038 9.173,39.878 9.525,39.768C9.881,39.658 10.272,39.603 10.698,39.603C11.221,39.603 11.691,39.654 12.109,39.755C12.526,39.851 12.898,39.977 13.223,40.13L12.781,41.158C12.496,41.031 12.17,40.921 11.806,40.829C11.445,40.732 11.072,40.684 10.685,40.684C10.149,40.684 9.734,40.809 9.439,41.06C9.145,41.306 8.998,41.64 8.998,42.062C8.998,42.312 9.031,42.53 9.096,42.714C9.162,42.895 9.272,43.059 9.426,43.209C9.58,43.353 9.782,43.492 10.032,43.624C10.287,43.751 10.599,43.888 10.969,44.033C11.368,44.191 11.718,44.353 12.017,44.521C12.32,44.688 12.573,44.876 12.775,45.087C12.977,45.298 13.128,45.542 13.229,45.819C13.335,46.096 13.387,46.423 13.387,46.801ZM17.029,49.379L15.829,49.379L15.829,42.141L17.029,42.141L17.029,49.379ZM15.737,40.183C15.737,39.919 15.803,39.728 15.935,39.609C16.071,39.491 16.238,39.432 16.436,39.432C16.532,39.432 16.623,39.447 16.706,39.478C16.794,39.504 16.869,39.548 16.93,39.609C16.996,39.671 17.047,39.75 17.081,39.847C17.121,39.939 17.141,40.051 17.141,40.183C17.141,40.438 17.071,40.629 16.93,40.757C16.794,40.88 16.629,40.941 16.436,40.941C16.238,40.941 16.071,40.88 15.935,40.757C15.803,40.634 15.737,40.442 15.737,40.183ZM28.666,49.379L28.666,44.718C28.666,44.147 28.556,43.719 28.337,43.433C28.116,43.147 27.776,43.004 27.315,43.004C26.994,43.004 26.722,43.057 26.497,43.163C26.273,43.264 26.089,43.415 25.944,43.617C25.803,43.815 25.7,44.063 25.634,44.362C25.568,44.657 25.535,44.997 25.535,45.384L25.535,49.379L24.328,49.379L24.328,44.718C24.328,44.147 24.219,43.719 23.999,43.433C23.784,43.147 23.445,43.004 22.984,43.004C22.645,43.004 22.362,43.062 22.134,43.176C21.905,43.29 21.721,43.459 21.58,43.683C21.444,43.907 21.345,44.182 21.283,44.507C21.226,44.833 21.198,45.206 21.198,45.628L21.198,49.379L19.998,49.379L19.998,42.141L20.974,42.141L21.145,43.116L21.211,43.116C21.316,42.927 21.442,42.765 21.587,42.629C21.732,42.488 21.89,42.372 22.061,42.279C22.237,42.187 22.422,42.119 22.615,42.075C22.813,42.031 23.013,42.009 23.215,42.009C23.742,42.009 24.179,42.106 24.526,42.299C24.878,42.492 25.137,42.795 25.304,43.209L25.357,43.209C25.471,43.002 25.608,42.824 25.766,42.675C25.928,42.525 26.104,42.402 26.293,42.306C26.486,42.205 26.689,42.13 26.9,42.082C27.11,42.033 27.326,42.009 27.546,42.009C28.315,42.009 28.892,42.219 29.279,42.642C29.67,43.059 29.866,43.729 29.866,44.652L29.866,49.379L28.666,49.379ZM36.038,49.511C35.779,49.511 35.544,49.481 35.333,49.425C35.122,49.368 34.931,49.292 34.76,49.201C34.593,49.104 34.443,48.992 34.311,48.865C34.184,48.737 34.07,48.603 33.969,48.462L33.89,48.462C33.903,48.612 33.916,48.755 33.929,48.891C33.938,49.005 33.947,49.124 33.955,49.247C33.964,49.365 33.969,49.46 33.969,49.53L33.969,52.622L32.769,52.622L32.769,42.141L33.744,42.141L33.916,43.116L33.969,43.116C34.07,42.963 34.184,42.82 34.311,42.688C34.439,42.551 34.586,42.435 34.753,42.339C34.924,42.237 35.116,42.158 35.327,42.101C35.537,42.039 35.775,42.009 36.038,42.009C36.452,42.009 36.827,42.088 37.166,42.246C37.504,42.405 37.792,42.642 38.029,42.958C38.271,43.27 38.458,43.659 38.589,44.125C38.721,44.591 38.787,45.131 38.787,45.747C38.787,46.366 38.721,46.911 38.589,47.381C38.458,47.847 38.271,48.238 38.029,48.554C37.792,48.871 37.504,49.111 37.166,49.273C36.827,49.431 36.452,49.511 36.038,49.511ZM35.808,43.004C35.474,43.004 35.19,43.055 34.957,43.156C34.728,43.257 34.542,43.411 34.397,43.617C34.256,43.824 34.151,44.081 34.081,44.389C34.015,44.696 33.977,45.059 33.969,45.476L33.969,45.747C33.969,46.19 33.997,46.586 34.054,46.933C34.116,47.276 34.217,47.566 34.358,47.803C34.503,48.036 34.694,48.214 34.931,48.337C35.168,48.456 35.465,48.515 35.821,48.515C36.414,48.515 36.849,48.276 37.126,47.797C37.407,47.318 37.548,46.63 37.548,45.733C37.548,44.819 37.407,44.136 37.126,43.683C36.849,43.231 36.41,43.004 35.808,43.004ZM42.554,49.379L41.354,49.379L41.354,39.122L42.554,39.122L42.554,49.379ZM48.384,49.511C47.9,49.511 47.459,49.429 47.059,49.267C46.658,49.104 46.314,48.867 46.024,48.554C45.738,48.243 45.516,47.856 45.358,47.395C45.2,46.933 45.121,46.406 45.121,45.813C45.121,45.215 45.193,44.681 45.338,44.211C45.483,43.74 45.688,43.343 45.951,43.018C46.215,42.688 46.529,42.438 46.894,42.266C47.263,42.094 47.669,42.009 48.113,42.009C48.548,42.009 48.939,42.088 49.286,42.246C49.634,42.4 49.928,42.62 50.17,42.906C50.411,43.187 50.596,43.527 50.724,43.927C50.855,44.323 50.921,44.762 50.921,45.246L50.921,45.99L46.359,45.99C46.382,46.839 46.56,47.463 46.894,47.862C47.232,48.262 47.733,48.462 48.397,48.462C48.621,48.462 48.827,48.451 49.016,48.429C49.21,48.407 49.394,48.377 49.57,48.337C49.75,48.293 49.923,48.24 50.091,48.179C50.258,48.113 50.427,48.041 50.598,47.961L50.598,49.029C50.423,49.112 50.249,49.185 50.078,49.247C49.911,49.308 49.737,49.359 49.557,49.398C49.381,49.438 49.197,49.467 49.003,49.484C48.814,49.502 48.608,49.511 48.384,49.511ZM48.087,43.004C47.586,43.004 47.188,43.176 46.894,43.519C46.603,43.861 46.435,44.36 46.386,45.015L49.629,45.015C49.629,44.716 49.599,44.444 49.537,44.198C49.48,43.947 49.388,43.734 49.26,43.558C49.137,43.382 48.979,43.246 48.786,43.149C48.592,43.053 48.359,43.004 48.087,43.004Z" style="fill:#a3a4a4;"/>
        <path d="M103.183,77.047C103.183,77.79 103.093,78.466 102.912,79.077C102.737,79.688 102.473,80.211 102.121,80.646C101.769,81.081 101.333,81.417 100.81,81.655C100.291,81.891 99.691,82.01 99.01,82.01C98.293,82.01 97.671,81.891 97.144,81.655C96.622,81.417 96.187,81.081 95.839,80.646C95.497,80.211 95.242,79.688 95.075,79.077C94.908,78.462 94.824,77.781 94.824,77.034C94.824,76.287 94.908,75.61 95.075,75.003C95.242,74.393 95.499,73.872 95.846,73.441C96.193,73.01 96.63,72.679 97.158,72.446C97.685,72.209 98.307,72.09 99.023,72.09C99.704,72.09 100.302,72.209 100.816,72.446C101.335,72.679 101.769,73.013 102.121,73.448C102.473,73.878 102.737,74.399 102.912,75.01C103.093,75.616 103.183,76.295 103.183,77.047ZM96.123,77.047C96.123,77.649 96.18,78.192 96.294,78.675C96.408,79.154 96.582,79.563 96.815,79.901C97.052,80.235 97.351,80.492 97.711,80.672C98.076,80.848 98.509,80.936 99.01,80.936C99.51,80.936 99.942,80.848 100.302,80.672C100.667,80.492 100.966,80.235 101.198,79.901C101.436,79.563 101.609,79.154 101.719,78.675C101.829,78.192 101.884,77.649 101.884,77.047C101.884,76.44 101.829,75.897 101.719,75.419C101.609,74.94 101.438,74.535 101.205,74.206C100.972,73.872 100.676,73.617 100.315,73.441C99.955,73.26 99.524,73.171 99.023,73.171C98.522,73.171 98.089,73.26 97.725,73.441C97.36,73.617 97.059,73.872 96.822,74.206C96.584,74.535 96.408,74.94 96.294,75.419C96.18,75.897 96.123,76.44 96.123,77.047ZM110.364,81.879L110.364,77.218C110.364,76.647 110.247,76.219 110.014,75.933C109.786,75.647 109.425,75.504 108.933,75.504C108.577,75.504 108.278,75.562 108.037,75.676C107.795,75.79 107.6,75.959 107.45,76.183C107.305,76.407 107.2,76.682 107.134,77.007C107.072,77.333 107.041,77.706 107.041,78.128L107.041,81.879L105.842,81.879L105.842,74.641L106.817,74.641L106.989,75.616L107.055,75.616C107.165,75.427 107.294,75.265 107.444,75.129C107.597,74.988 107.764,74.872 107.945,74.779C108.125,74.687 108.316,74.619 108.518,74.575C108.72,74.531 108.927,74.509 109.138,74.509C109.942,74.509 110.546,74.72 110.95,75.141C111.359,75.559 111.563,76.229 111.563,77.152L111.563,81.879L110.364,81.879Z" style="fill:#c8c8c8;"/>
        <path d="M92.642,46.467L91.238,46.467L91.238,48.629L90.078,48.629L90.078,46.467L85.629,46.467L85.629,45.418L89.999,38.939L91.238,38.939L91.238,45.372L92.642,45.372L92.642,46.467ZM90.078,45.372L90.078,43.026C90.078,42.78 90.08,42.522 90.085,42.254C90.094,41.981 90.102,41.718 90.111,41.463C90.12,41.204 90.129,40.962 90.138,40.738C90.15,40.514 90.159,40.327 90.164,40.178L90.105,40.178C90.074,40.266 90.034,40.365 89.986,40.475C89.942,40.58 89.891,40.688 89.834,40.798C89.781,40.903 89.727,41.006 89.67,41.107C89.612,41.209 89.56,41.294 89.511,41.365L86.802,45.372L90.078,45.372ZM100.232,48.629L94.221,48.629L94.221,47.6L96.528,45.089C96.857,44.733 97.152,44.408 97.411,44.113C97.67,43.819 97.89,43.531 98.07,43.25C98.254,42.969 98.395,42.687 98.492,42.406C98.589,42.12 98.637,41.811 98.637,41.477C98.637,41.217 98.6,40.989 98.525,40.791C98.45,40.593 98.343,40.426 98.202,40.29C98.066,40.149 97.903,40.044 97.714,39.974C97.525,39.903 97.314,39.868 97.081,39.868C96.664,39.868 96.286,39.954 95.948,40.125C95.614,40.292 95.295,40.508 94.992,40.771L94.319,39.987C94.495,39.829 94.684,39.681 94.886,39.545C95.088,39.405 95.306,39.283 95.539,39.183C95.772,39.082 96.018,39.002 96.277,38.945C96.536,38.884 96.809,38.853 97.095,38.853C97.516,38.853 97.897,38.912 98.235,39.031C98.578,39.15 98.868,39.321 99.105,39.545C99.342,39.765 99.525,40.035 99.652,40.356C99.784,40.672 99.85,41.031 99.85,41.43C99.85,41.804 99.79,42.16 99.671,42.498C99.558,42.837 99.397,43.17 99.191,43.5C98.989,43.825 98.745,44.153 98.459,44.482C98.178,44.812 97.872,45.155 97.543,45.511L95.691,47.481L95.691,47.534L100.232,47.534L100.232,48.629Z" style="fill:#c8c8c8;"/>
        <path d="M121.5,4C122.881,4 124,5.12 124,6.5L124,25C124,26.381 122.881,27.5 121.5,27.5L6.5,27.5C5.12,27.5 4,26.381 4,25L4,6.5C4,5.12 5.12,4 6.5,4L121.5,4Z" style="fill:#333435;"/>
        <path d="M55.936,19.693C55.754,19.747 55.535,19.791 55.28,19.823C55.029,19.854 54.794,19.87 54.575,19.87C54.019,19.87 53.564,19.782 53.208,19.604C52.857,19.421 52.609,19.162 52.463,18.824C52.358,18.583 52.306,18.255 52.306,17.84L52.306,14.408L51.069,14.408L51.069,13.075L52.306,13.075L52.306,11.223L53.926,11.223L53.926,13.075L55.84,13.075L55.84,14.408L53.926,14.408L53.926,17.628C53.926,17.883 53.965,18.073 54.042,18.196C54.179,18.405 54.45,18.51 54.856,18.51C55.042,18.51 55.227,18.496 55.409,18.469C55.596,18.437 55.772,18.398 55.936,18.353L55.936,19.693ZM64.216,16.391C64.216,16.91 64.139,17.384 63.984,17.813C63.829,18.241 63.606,18.608 63.315,18.913C63.027,19.219 62.679,19.456 62.269,19.624C61.858,19.788 61.4,19.87 60.895,19.87C60.375,19.87 59.908,19.788 59.493,19.624C59.083,19.456 58.734,19.219 58.447,18.913C58.16,18.608 57.939,18.241 57.784,17.813C57.634,17.384 57.559,16.91 57.559,16.391C57.559,15.871 57.636,15.397 57.791,14.969C57.946,14.541 58.167,14.174 58.454,13.868C58.746,13.563 59.097,13.328 59.507,13.164C59.917,12.996 60.375,12.911 60.881,12.911C61.4,12.911 61.865,12.996 62.275,13.164C62.69,13.328 63.041,13.563 63.328,13.868C63.615,14.174 63.834,14.541 63.984,14.969C64.139,15.397 64.216,15.871 64.216,16.391ZM62.542,16.391C62.542,16.04 62.501,15.73 62.419,15.461C62.337,15.192 62.223,14.967 62.077,14.784C61.931,14.602 61.756,14.465 61.551,14.374C61.346,14.283 61.122,14.238 60.881,14.238C60.644,14.238 60.423,14.283 60.218,14.374C60.017,14.465 59.844,14.602 59.698,14.784C59.552,14.967 59.439,15.192 59.356,15.461C59.274,15.73 59.233,16.04 59.233,16.391C59.233,16.741 59.274,17.052 59.356,17.321C59.439,17.589 59.552,17.815 59.698,17.997C59.849,18.175 60.024,18.312 60.225,18.407C60.429,18.499 60.653,18.544 60.895,18.544C61.136,18.544 61.357,18.499 61.557,18.407C61.758,18.312 61.931,18.175 62.077,17.997C62.223,17.815 62.337,17.589 62.419,17.321C62.501,17.052 62.542,16.741 62.542,16.391ZM72.669,16.391C72.669,16.91 72.591,17.384 72.436,17.813C72.281,18.241 72.058,18.608 71.766,18.913C71.479,19.219 71.131,19.456 70.721,19.624C70.31,19.788 69.852,19.87 69.347,19.87C68.827,19.87 68.36,19.788 67.945,19.624C67.535,19.456 67.186,19.219 66.899,18.913C66.612,18.608 66.391,18.241 66.236,17.813C66.086,17.384 66.01,16.91 66.01,16.391C66.01,15.871 66.088,15.397 66.243,14.969C66.397,14.541 66.619,14.174 66.906,13.868C67.198,13.563 67.549,13.328 67.959,13.164C68.369,12.996 68.827,12.911 69.333,12.911C69.852,12.911 70.317,12.996 70.727,13.164C71.142,13.328 71.493,13.563 71.78,13.868C72.067,14.174 72.286,14.541 72.436,14.969C72.591,15.397 72.669,15.871 72.669,16.391ZM70.994,16.391C70.994,16.04 70.953,15.73 70.871,15.461C70.789,15.192 70.675,14.967 70.529,14.784C70.383,14.602 70.208,14.465 70.003,14.374C69.798,14.283 69.574,14.238 69.333,14.238C69.096,14.238 68.875,14.283 68.67,14.374C68.469,14.465 68.296,14.602 68.15,14.784C68.004,14.967 67.89,15.192 67.808,15.461C67.726,15.73 67.685,16.04 67.685,16.391C67.685,16.741 67.726,17.052 67.808,17.321C67.89,17.589 68.004,17.815 68.15,17.997C68.301,18.175 68.476,18.312 68.677,18.407C68.882,18.499 69.105,18.544 69.347,18.544C69.588,18.544 69.809,18.499 70.01,18.407C70.21,18.312 70.383,18.175 70.529,17.997C70.675,17.815 70.789,17.589 70.871,17.321C70.953,17.052 70.994,16.741 70.994,16.391ZM74.873,19.699L74.873,9.801L76.493,9.801L76.493,19.699L74.873,19.699ZM79.278,17.874L81.117,17.874L81.117,19.699L79.278,19.699L79.278,17.874ZM88.133,20.028L88.133,19.535C88.138,19.398 88.144,19.285 88.153,19.194L88.14,19.194C88.04,19.276 87.923,19.358 87.791,19.44C87.664,19.517 87.522,19.59 87.367,19.658C87.212,19.722 87.042,19.772 86.855,19.809C86.668,19.85 86.476,19.87 86.281,19.87C85.93,19.87 85.586,19.809 85.248,19.686C84.915,19.558 84.619,19.36 84.36,19.091C84.1,18.818 83.89,18.469 83.731,18.045C83.571,17.621 83.491,17.11 83.491,16.514C83.491,15.916 83.571,15.395 83.731,14.948C83.894,14.497 84.111,14.121 84.38,13.82C84.649,13.52 84.957,13.294 85.303,13.144C85.653,12.989 86.013,12.911 86.383,12.911C86.789,12.911 87.149,12.998 87.463,13.171C87.778,13.339 88.035,13.556 88.236,13.82L88.263,13.82L88.331,13.075L89.753,13.075L89.753,19.823C89.753,20.209 89.721,20.543 89.657,20.821C89.594,21.099 89.5,21.345 89.377,21.559C89.231,21.809 89.045,22.028 88.817,22.215C88.593,22.401 88.336,22.557 88.044,22.68C87.757,22.802 87.44,22.894 87.094,22.953C86.748,23.017 86.381,23.049 85.993,23.049C85.775,23.049 85.56,23.04 85.351,23.022C85.141,23.008 84.943,22.985 84.756,22.953C84.574,22.926 84.405,22.892 84.25,22.851C84.1,22.814 83.972,22.776 83.867,22.735L83.867,21.415C84.168,21.516 84.483,21.591 84.811,21.641C85.143,21.696 85.492,21.723 85.857,21.723C86.581,21.723 87.141,21.581 87.538,21.299C87.935,21.021 88.133,20.597 88.133,20.028ZM86.684,18.578C86.848,18.578 87.003,18.558 87.149,18.517C87.295,18.476 87.429,18.423 87.552,18.36C87.675,18.296 87.784,18.225 87.88,18.148C87.98,18.07 88.065,17.993 88.133,17.915L88.133,14.955C87.96,14.75 87.746,14.579 87.49,14.443C87.235,14.306 86.964,14.235 86.677,14.23C86.577,14.23 86.47,14.244 86.356,14.272C86.246,14.294 86.135,14.338 86.021,14.402C85.906,14.465 85.797,14.552 85.693,14.661C85.592,14.766 85.504,14.9 85.426,15.065C85.349,15.229 85.284,15.425 85.235,15.653C85.189,15.88 85.166,16.145 85.166,16.446C85.166,16.778 85.198,17.077 85.262,17.341C85.326,17.601 85.421,17.824 85.549,18.011C85.677,18.193 85.834,18.334 86.021,18.435C86.212,18.531 86.433,18.578 86.684,18.578ZM91.888,16.52C91.888,15.942 91.968,15.427 92.128,14.976C92.287,14.52 92.504,14.14 92.777,13.834C93.055,13.524 93.372,13.294 93.728,13.144C94.083,12.989 94.452,12.911 94.835,12.911C95.013,12.911 95.181,12.927 95.341,12.959C95.5,12.991 95.65,13.034 95.792,13.089C95.933,13.144 96.065,13.205 96.189,13.274C96.312,13.342 96.426,13.413 96.53,13.486L96.544,13.486C96.539,13.394 96.534,13.267 96.53,13.102L96.53,9.801L98.15,9.801L98.15,17.731C98.15,18.168 98.155,18.544 98.164,18.859C98.173,19.173 98.182,19.453 98.191,19.699L96.729,19.699L96.66,18.995L96.632,18.995C96.537,19.109 96.421,19.221 96.284,19.33C96.152,19.44 96.004,19.535 95.84,19.617C95.68,19.695 95.503,19.756 95.307,19.802C95.115,19.848 94.906,19.87 94.678,19.87C94.318,19.87 93.971,19.807 93.638,19.679C93.311,19.551 93.014,19.355 92.75,19.091C92.49,18.822 92.281,18.474 92.121,18.045C91.966,17.612 91.888,17.104 91.888,16.52ZM95.081,18.578C95.241,18.578 95.391,18.558 95.532,18.517C95.678,18.476 95.815,18.421 95.942,18.353C96.07,18.284 96.182,18.209 96.277,18.127C96.378,18.045 96.462,17.965 96.53,17.888L96.53,14.743C96.339,14.588 96.125,14.461 95.888,14.361C95.65,14.256 95.4,14.203 95.135,14.203C94.967,14.203 94.789,14.238 94.603,14.306C94.42,14.374 94.251,14.49 94.097,14.655C93.946,14.819 93.819,15.046 93.714,15.338C93.614,15.63 93.564,16.001 93.564,16.452C93.564,17.118 93.691,17.637 93.946,18.011C94.206,18.385 94.584,18.574 95.081,18.578Z" style="fill:#c8c8c8;"/>
        <path d="M37.274,9.702L37.364,10.009C37.53,10.573 38.05,10.961 38.637,10.961C38.859,10.961 39.077,10.906 39.272,10.8L39.554,10.647C40.715,10.014 41.987,11.285 41.354,12.448L41.2,12.729C41.094,12.923 41.039,13.142 41.039,13.364C41.039,13.95 41.428,14.471 41.991,14.636L42.298,14.727C43.567,15.101 43.567,16.899 42.298,17.273L41.991,17.364C41.428,17.53 41.039,18.05 41.039,18.637C41.039,18.859 41.094,19.077 41.2,19.272L41.353,19.554C41.987,20.715 40.715,21.987 39.553,21.354L39.272,21.2C39.077,21.094 38.859,21.039 38.637,21.039C38.05,21.039 37.53,21.427 37.364,21.991L37.274,22.299C36.899,23.567 35.101,23.567 34.727,22.299L34.636,21.991C34.471,21.427 33.95,21.039 33.364,21.039C33.142,21.039 32.923,21.094 32.728,21.2L32.447,21.353C31.285,21.987 30.014,20.715 30.646,19.552L30.8,19.272C30.906,19.077 30.962,18.859 30.962,18.637C30.962,18.05 30.573,17.53 30.01,17.364L29.702,17.273C28.433,16.899 28.433,15.101 29.702,14.727L30.01,14.636C30.821,14.397 31.204,13.472 30.8,12.729L30.647,12.447C30.014,11.285 31.285,10.014 32.447,10.646L32.728,10.8C32.923,10.906 33.142,10.961 33.364,10.961C33.95,10.961 34.471,10.573 34.636,10.009L34.727,9.702C35.101,8.433 36.899,8.433 37.274,9.702ZM36,18.25L36,18.249C37.234,18.249 38.25,17.233 38.25,15.999C38.25,14.766 37.234,13.75 36,13.75C34.766,13.75 33.75,14.766 33.75,16C33.75,17.235 34.766,18.25 36,18.25Z" style="fill:#c8c8c8;"/>
    </g>
</svg>
